<svg width=50 viewBox="0 0 89.55 89.31">
<defs>
<style>.cls-1{fill:#1d1d1b;}.cls-2{fill:#f7a536;}</style></defs>
<polygon class="cls-1" points="33.41 5.72 44.82 17.12 56.16 5.78 56.16 17.12 44.74 28.54 33.37 17.17 33.41 5.72"/>
<polygon class="cls-1" points="64.28 9.05 64.28 25.18 80.32 25.18 72.3 33.2 56.16 33.2 56.16 17.12 64.28 9.05"/>
<polygon class="cls-2" points="83.71 33.26 72.31 44.66 83.65 56 72.31 56 60.9 44.59 72.26 33.22 83.71 33.26"/>
<polygon class="cls-1" points="80.38 64.13 64.26 64.13 64.26 80.17 56.24 72.15 56.24 56 72.31 56 80.38 64.13"/>
<polygon class="cls-1" points="56.2 83.59 44.79 72.19 33.45 83.53 33.45 72.19 44.87 60.78 56.24 72.14 56.2 83.59"/>
<polygon class="cls-1" points="25.29 80.25 25.29 64.13 9.26 64.13 17.27 56.11 33.42 56.11 33.42 72.18 25.29 80.25"/>
<polygon class="cls-2" points="5.84 56.06 17.24 44.66 5.9 33.32 17.24 33.32 28.66 44.74 17.29 56.11 5.84 56.06"/>
<polygon class="cls-1" points="9.2 25.19 25.32 25.19 25.32 9.16 33.34 17.18 33.34 33.32 17.27 33.32 9.2 25.19"/>
</svg>