<?xml version="1.0" encoding="utf-8"?>
<!-- Generator: Adobe Illustrator 24.2.0, SVG Export Plug-In . SVG Version: 6.00 Build 0)  -->
<svg version="1.1" id="Layer_1" xmlns="http://www.w3.org/2000/svg" xmlns:xlink="http://www.w3.org/1999/xlink" x="0px" y="0px"
	 viewBox="0 0 232.4 80.3" style="enable-background:new 0 0 232.4 80.3;" xml:space="preserve">
<style type="text/css">
	.st0{fill:#1D1D1B;}
	.st1{fill:#F7A536;}
</style>
<polygon class="st0" points="32.3,1.2 43.7,12.6 55,1.3 55,12.6 43.6,24 32.3,12.7 "/>
<polygon class="st0" points="63.2,4.6 63.2,20.7 79.2,20.7 71.2,28.7 55,28.7 55,12.6 "/>
<polygon class="st1" points="82.6,28.8 71.2,40.2 82.6,51.5 71.2,51.5 59.8,40.1 71.2,28.7 "/>
<polygon class="st0" points="79.3,59.6 63.2,59.6 63.2,75.7 55.1,67.7 55.1,51.5 71.2,51.5 "/>
<polygon class="st0" points="55.1,79.1 43.7,67.7 32.3,79.1 32.3,67.7 43.8,56.3 55.1,67.7 "/>
<polygon class="st0" points="24.2,75.8 24.2,59.6 8.1,59.6 16.2,51.6 32.3,51.6 32.3,67.7 "/>
<polygon class="st1" points="4.7,51.6 16.1,40.2 4.8,28.8 16.1,28.8 27.5,40.3 16.2,51.6 "/>
<polygon class="st0" points="8.1,20.7 24.2,20.7 24.2,4.7 32.2,12.7 32.2,28.8 16.2,28.8 "/>
<g>
	<path class="st1" d="M127.7,40.9c0,1.1-0.1,2.3-0.5,3.4c-0.3,0.9-0.7,1.8-1.2,2.6c-0.5,0.7-1.1,1.4-1.8,1.9
		c-0.7,0.5-1.4,0.9-2.1,1.3c-0.7,0.3-1.5,0.6-2.3,0.7c-0.7,0.2-1.4,0.2-2.2,0.2H93.4v-6.3h24.2c1,0.1,2.1-0.3,2.8-1.1
		c0.7-0.8,1.1-1.8,1-2.9c0-0.5-0.1-1.1-0.3-1.6c-0.2-0.4-0.4-0.9-0.8-1.2c-0.3-0.4-0.7-0.6-1.2-0.8c-0.5-0.2-1-0.3-1.6-0.3h-14.5
		c-1.1,0-2.2-0.2-3.3-0.5c-2.5-0.8-4.6-2.5-5.8-4.9c-0.7-1.5-1.1-3.2-1-4.8c0-1.6,0.3-3.3,1-4.8c0.6-1.2,1.5-2.3,2.5-3.2
		c1-0.8,2.1-1.4,3.3-1.8c1.1-0.3,2.2-0.5,3.3-0.5h21.4v6.2h-21.3c-1-0.1-2.1,0.3-2.8,1.1c-0.7,0.8-1.1,1.8-1,2.9
		c-0.1,1,0.3,2.1,1,2.9c0.7,0.7,1.7,1.1,2.8,1.1h14.5c0.7,0,1.4,0.1,2.1,0.3c1.6,0.4,3.1,1.1,4.4,2.1c0.7,0.6,1.3,1.2,1.8,1.9
		c0.5,0.8,0.9,1.7,1.2,2.6C127.5,38.6,127.7,39.8,127.7,40.9z"/>
	<path class="st1" d="M164.5,47.9c0,0.4-0.1,0.8-0.2,1.2c-0.2,0.4-0.4,0.7-0.7,1c-0.6,0.6-1.4,0.9-2.2,0.9h-14.2
		c-1.4,0-2.7-0.1-4.1-0.4c-1.4-0.3-2.7-0.7-4-1.3c-1.3-0.6-2.5-1.4-3.6-2.3c-1.1-1-2.1-2.1-3-3.3c-0.9-1.4-1.5-2.8-2-4.4
		c-0.5-1.8-0.7-3.6-0.7-5.5V16.5h6.3v17.3c0,1.5,0.2,3.1,0.7,4.5c0.4,1.1,1.1,2.2,1.9,3.1c0.7,0.8,1.6,1.4,2.5,1.9
		c0.8,0.4,1.7,0.8,2.6,1c0.7,0.2,1.4,0.3,2.1,0.4c0.6,0,1,0.1,1.2,0.1h11V16.5h6.3V47.9z"/>
	<path class="st1" d="M204,48.4c0,0.4-0.1,0.8-0.3,1.2c-0.2,0.4-0.4,0.7-0.7,1c-0.3,0.3-0.6,0.5-1,0.7c-0.4,0.2-0.8,0.2-1.2,0.2
		c-0.4,0-0.8-0.1-1.2-0.2c-0.4-0.1-0.8-0.4-1.1-0.7l-22.9-23.9v24.4h-6.3V19.2c0-0.6,0.2-1.2,0.5-1.8c0.3-0.5,0.8-0.9,1.4-1.2
		c0.6-0.2,1.2-0.3,1.8-0.2c0.6,0.1,1.2,0.4,1.6,0.9l22.9,23.9V16.5h6.3L204,48.4z"/>
</g>
<g>
	<g>
		<path d="M94.6,60.7c0.6-0.1,1.8-0.2,2.9-0.2c1.4,0,2.4,0.2,3.1,0.7c0.7,0.4,1.1,1.1,1.1,2c0,1-0.6,1.9-1.8,2.3v0
			c1.1,0.3,2.2,1.2,2.2,2.7c0,1-0.4,1.7-1,2.2c-0.8,0.7-2,1-4,1c-1.1,0-1.9-0.1-2.4-0.1V60.7z M96.5,65h1c1.4,0,2.1-0.6,2.1-1.6
			c0-1-0.8-1.5-2-1.5c-0.6,0-0.9,0-1.1,0.1V65z M96.5,69.9c0.3,0,0.6,0.1,1,0.1c1.3,0,2.4-0.5,2.4-1.8c0-1.3-1.1-1.8-2.5-1.8h-1
			V69.9z"/>
		<path d="M103.7,60h2v11.4h-2V60z"/>
		<path d="M115.2,67.4c0,2.9-2,4.1-4,4.1c-2.2,0-3.9-1.5-3.9-4c0-2.6,1.7-4.1,4-4.1C113.7,63.4,115.2,65,115.2,67.4z M109.4,67.5
			c0,1.5,0.7,2.6,1.9,2.6c1.1,0,1.9-1.1,1.9-2.7c0-1.2-0.5-2.6-1.9-2.6C109.9,64.8,109.4,66.2,109.4,67.5z"/>
		<path d="M124,63.6c0,0.5-0.1,1.2-0.1,2.2v4.4c0,1.6-0.3,2.8-1.2,3.5c-0.8,0.7-1.9,0.9-3,0.9c-1,0-2-0.2-2.7-0.6l0.4-1.5
			c0.5,0.3,1.3,0.6,2.3,0.6c1.3,0,2.2-0.7,2.2-2.4v-0.7h0c-0.4,0.7-1.2,1.1-2.3,1.1c-1.9,0-3.3-1.6-3.3-3.8c0-2.6,1.7-4.1,3.5-4.1
			c1.2,0,1.9,0.6,2.3,1.2h0l0.1-1H124z M121.9,66.7c0-0.2,0-0.4-0.1-0.5c-0.2-0.7-0.8-1.3-1.6-1.3c-1.1,0-1.9,1-1.9,2.5
			c0,1.3,0.7,2.4,1.9,2.4c0.7,0,1.4-0.5,1.6-1.2c0.1-0.2,0.1-0.5,0.1-0.7V66.7z"/>
		<path d="M131.4,60.6v10.8h-2V60.6H131.4z"/>
		<path d="M135.7,62.2h-3.1v-1.7h8.2v1.7h-3.1v9.1h-2V62.2z"/>
		<path d="M148.8,66.4v1.4h-4.1v-1.4H148.8z"/>
		<path d="M155.4,71.4l-2.6-10.8h2.1l1,4.9c0.3,1.3,0.5,2.7,0.7,3.8h0c0.2-1.1,0.5-2.4,0.8-3.8l1.2-4.9h2.1l1.1,5
			c0.3,1.3,0.5,2.5,0.7,3.6h0c0.2-1.2,0.4-2.4,0.7-3.7l1.1-4.9h2l-2.9,10.8h-2.1l-1.1-5.1c-0.3-1.2-0.5-2.3-0.6-3.4h0
			c-0.2,1.2-0.4,2.2-0.7,3.4l-1.3,5.1H155.4z"/>
		<path d="M168.9,68c0.1,1.4,1.1,2,2.4,2c0.9,0,1.6-0.1,2.2-0.4l0.3,1.4c-0.7,0.3-1.6,0.5-2.7,0.5c-2.5,0-4-1.6-4-4
			c0-2.2,1.3-4.2,3.8-4.2c2.5,0,3.4,2.1,3.4,3.8c0,0.4,0,0.7-0.1,0.8H168.9z M172.3,66.7c0-0.7-0.3-1.9-1.6-1.9
			c-1.2,0-1.7,1.1-1.8,1.9H172.3z"/>
		<path d="M175.7,71.4c0-0.5,0.1-1.4,0.1-2.2V60h2v4.6h0c0.5-0.8,1.3-1.2,2.5-1.2c1.9,0,3.3,1.6,3.2,4c0,2.8-1.8,4.2-3.5,4.2
			c-1,0-1.9-0.4-2.5-1.3h0l-0.1,1.2H175.7z M177.7,68.2c0,0.2,0,0.3,0,0.5c0.2,0.8,0.9,1.4,1.7,1.4c1.2,0,2-1,2-2.6
			c0-1.4-0.7-2.5-2-2.5c-0.8,0-1.5,0.6-1.7,1.4c0,0.2-0.1,0.3-0.1,0.5V68.2z"/>
		<path d="M195.6,60v9.2c0,0.8,0,1.7,0.1,2.2h-1.8l-0.1-1.2h0c-0.5,0.9-1.4,1.4-2.5,1.4c-1.9,0-3.3-1.6-3.3-4c0-2.6,1.6-4.2,3.5-4.2
			c1.1,0,1.8,0.4,2.2,1h0V60H195.6z M193.7,66.8c0-0.2,0-0.4,0-0.5c-0.2-0.8-0.8-1.4-1.7-1.4c-1.3,0-2,1.1-2,2.6
			c0,1.4,0.7,2.5,2,2.5c0.8,0,1.5-0.5,1.7-1.4c0-0.2,0.1-0.4,0.1-0.6V66.8z"/>
		<path d="M199.1,68c0.1,1.4,1.1,2,2.4,2c0.9,0,1.6-0.1,2.2-0.4l0.3,1.4c-0.7,0.3-1.6,0.5-2.7,0.5c-2.5,0-4-1.6-4-4
			c0-2.2,1.3-4.2,3.8-4.2c2.5,0,3.4,2.1,3.4,3.8c0,0.4,0,0.7-0.1,0.8H199.1z M202.6,66.7c0-0.7-0.3-1.9-1.6-1.9
			c-1.2,0-1.7,1.1-1.8,1.9H202.6z"/>
		<path d="M207.2,63.6l1.3,4c0.2,0.7,0.4,1.3,0.5,1.9h0c0.1-0.6,0.3-1.3,0.5-1.9l1.2-4h2.1l-3,7.8H208l-2.9-7.8H207.2z"/>
	</g>
</g>
</svg>
