<svg id="Layer_1" data-name="Layer 1" xmlns="http://www.w3.org/2000/svg" viewBox="0 0 186.48 80.34"><defs><style>.cls-1{fill:#1d1d1b;}.cls-2{fill:#f7a536;}</style></defs><polygon class="cls-1" points="32.31 1.23 43.71 12.63 55.05 1.29 55.05 12.63 43.63 24.05 32.27 12.68 32.31 1.23"/><polygon class="cls-1" points="63.18 4.56 63.18 20.69 79.22 20.69 71.2 28.71 55.05 28.71 55.05 12.63 63.18 4.56"/><polygon class="cls-2" points="82.61 28.77 71.2 40.17 82.55 51.51 71.2 51.51 59.79 40.1 71.16 28.73 82.61 28.77"/><polygon class="cls-1" points="79.27 59.64 63.15 59.64 63.15 75.68 55.13 67.66 55.13 51.51 71.21 51.51 79.27 59.64"/><polygon class="cls-1" points="55.09 79.11 43.69 67.7 32.35 79.05 32.35 67.7 43.76 56.29 55.13 67.66 55.09 79.11"/><polygon class="cls-1" points="24.19 75.76 24.19 59.64 8.15 59.64 16.17 51.62 32.31 51.62 32.31 67.69 24.19 75.76"/><polygon class="cls-2" points="4.73 51.58 16.13 40.17 4.79 28.83 16.13 28.83 27.55 40.25 16.18 51.62 4.73 51.58"/><polygon class="cls-1" points="8.09 20.7 24.22 20.7 24.22 4.67 32.24 12.69 32.24 28.83 16.16 28.83 8.09 20.7"/><path class="cls-2" d="M118.5,47.09a9.2,9.2,0,0,1-.39,2.78,8.22,8.22,0,0,1-1,2.17,7,7,0,0,1-1.5,1.6,9.51,9.51,0,0,1-1.78,1.08,8.81,8.81,0,0,1-1.88.62,8.25,8.25,0,0,1-1.79.2H90.05v-5.2h20.08a3.07,3.07,0,0,0,2.33-.88,3.3,3.3,0,0,0,.83-2.37,3.73,3.73,0,0,0-.22-1.32,2.9,2.9,0,0,0-.63-1,2.73,2.73,0,0,0-1-.68,3.43,3.43,0,0,0-1.31-.24h-12a9.25,9.25,0,0,1-2.72-.45,8,8,0,0,1-4.8-4.07,8.7,8.7,0,0,1-.83-4,8.58,8.58,0,0,1,.83-3.95,8,8,0,0,1,2.09-2.62,8.06,8.06,0,0,1,2.71-1.47,9.25,9.25,0,0,1,2.72-.45h17.72V32H98.16a3,3,0,0,0-2.31.9A3.35,3.35,0,0,0,95,35.32a3.26,3.26,0,0,0,.83,2.37,3,3,0,0,0,2.31.88h12a8.87,8.87,0,0,1,1.78.23,9,9,0,0,1,3.65,1.76,7.66,7.66,0,0,1,1.49,1.61,8,8,0,0,1,1,2.16A9.44,9.44,0,0,1,118.5,47.09Z"/><path class="cls-2" d="M149,52.92a2.57,2.57,0,0,1-.2,1,2.39,2.39,0,0,1-.56.83,2.66,2.66,0,0,1-1.86.75H134.63a16.14,16.14,0,0,1-3.36-.36,14.91,14.91,0,0,1-3.3-1.11,14.16,14.16,0,0,1-3-1.91,12.7,12.7,0,0,1-2.45-2.75,13.54,13.54,0,0,1-1.65-3.65,16.26,16.26,0,0,1-.6-4.57V26.83h5.2V41.19a9.92,9.92,0,0,0,.61,3.72,8.33,8.33,0,0,0,1.55,2.54,7.74,7.74,0,0,0,2.06,1.61,11.81,11.81,0,0,0,2.14.86,11.3,11.3,0,0,0,1.78.35c.51,0,.85.07,1,.07h9.15V26.83H149Z"/><path class="cls-2" d="M181.75,53.32a2.58,2.58,0,0,1-.21,1,2.7,2.7,0,0,1-.56.83,2.46,2.46,0,0,1-.83.55,2.51,2.51,0,0,1-1,.2,2.77,2.77,0,0,1-1-.18,2.29,2.29,0,0,1-.88-.58l-19-19.86V55.54h-5.21V29.06a2.52,2.52,0,0,1,.45-1.46,2.91,2.91,0,0,1,1.15-1,2.67,2.67,0,0,1,1.53-.15,2.58,2.58,0,0,1,1.34.73l19,19.84V26.83h5.21Z"/><path class="cls-1" d="M90.08,68.36a3.65,3.65,0,0,0,1.87.53c1.06,0,1.69-.56,1.69-1.38s-.43-1.19-1.53-1.61C90.8,65.44,90,64.75,90,63.61a2.32,2.32,0,0,1,2.61-2.19,3.73,3.73,0,0,1,1.79.39l-.29.86a3.11,3.11,0,0,0-1.53-.39c-1.11,0-1.52.66-1.52,1.21,0,.76.49,1.13,1.6,1.56,1.37.53,2.07,1.19,2.07,2.38s-.93,2.32-2.84,2.32a4.17,4.17,0,0,1-2.06-.51Z"/><path class="cls-1" d="M97.63,62.16v1.67h1.52v.8H97.63v3.13c0,.72.21,1.13.8,1.13a2.68,2.68,0,0,0,.61-.07l0,.79a2.73,2.73,0,0,1-.94.14A1.45,1.45,0,0,1,97,69.31a2.15,2.15,0,0,1-.41-1.51V64.63h-.9v-.8h.9V62.44Z"/><path class="cls-1" d="M105.49,68.05c0,.6,0,1.13.05,1.58h-.93l-.07-.94h0a2.19,2.19,0,0,1-1.92,1.08c-.91,0-2-.51-2-2.55V63.83h1.05V67c0,1.11.34,1.85,1.3,1.85a1.5,1.5,0,0,0,1.49-1.5V63.83h1Z"/><path class="cls-1" d="M112.56,61.12v7c0,.51,0,1.1,0,1.49h-1l0-1h0a2.16,2.16,0,0,1-2,1.14c-1.4,0-2.48-1.19-2.48-3,0-1.93,1.19-3.12,2.6-3.12a1.93,1.93,0,0,1,1.75.89h0V61.12Zm-1,5.07a2.2,2.2,0,0,0-.05-.44,1.56,1.56,0,0,0-1.53-1.22c-1.09,0-1.73,1-1.73,2.24s.57,2.14,1.71,2.14a1.58,1.58,0,0,0,1.55-1.25,2.24,2.24,0,0,0,.05-.46Z"/><path class="cls-1" d="M115.79,62.2a.62.62,0,0,1-.67.65.63.63,0,0,1-.64-.65.65.65,0,0,1,.66-.66A.63.63,0,0,1,115.79,62.2Zm-1.17,7.43v-5.8h1v5.8Z"/><path class="cls-1" d="M123,66.68a2.84,2.84,0,0,1-2.89,3.09,2.76,2.76,0,0,1-2.79-3,2.83,2.83,0,0,1,2.88-3.08A2.75,2.75,0,0,1,123,66.68Zm-4.61.06c0,1.28.73,2.23,1.76,2.23s1.77-.94,1.77-2.25c0-1-.5-2.23-1.74-2.23S118.37,65.64,118.37,66.74Z"/></svg>