<svg id="Layer_1" data-name="Layer 1" xmlns="http://www.w3.org/2000/svg" viewBox="0 0 188.64 80.41"><defs><style>.cls-1{fill:#1d1d1b;}.cls-2{fill:#f7a536;}</style></defs><polygon class="cls-1" points="32.89 1.27 44.29 12.67 55.63 1.33 55.63 12.67 44.21 24.09 32.84 12.72 32.89 1.27"/><polygon class="cls-1" points="63.76 4.6 63.76 20.73 79.8 20.73 71.78 28.75 55.63 28.75 55.63 12.67 63.76 4.6"/><polygon class="cls-2" points="83.19 28.81 71.78 40.21 83.13 51.55 71.78 51.55 60.37 40.13 71.73 28.77 83.19 28.81"/><polygon class="cls-1" points="79.85 59.68 63.73 59.68 63.73 75.72 55.71 67.7 55.71 51.55 71.79 51.55 79.85 59.68"/><polygon class="cls-1" points="55.67 79.15 44.27 67.74 32.93 79.08 32.93 67.74 44.34 56.33 55.71 67.69 55.67 79.15"/><polygon class="cls-1" points="24.77 75.8 24.77 59.68 8.73 59.68 16.75 51.66 32.89 51.66 32.89 67.73 24.77 75.8"/><polygon class="cls-2" points="5.31 51.62 16.71 40.21 5.37 28.87 16.71 28.87 28.13 40.29 16.76 51.66 5.31 51.62"/><polygon class="cls-1" points="8.67 20.74 24.8 20.74 24.8 4.71 32.82 12.72 32.82 28.87 16.74 28.87 8.67 20.74"/><path class="cls-2" d="M120.08,46.13a9.2,9.2,0,0,1-.39,2.78,8.22,8.22,0,0,1-1,2.17,7,7,0,0,1-1.5,1.6,9.51,9.51,0,0,1-1.78,1.08,8.81,8.81,0,0,1-1.88.62,8.92,8.92,0,0,1-1.79.2H91.63v-5.2h20.08A3.07,3.07,0,0,0,114,48.5a3.3,3.3,0,0,0,.83-2.37,3.73,3.73,0,0,0-.22-1.32,2.82,2.82,0,0,0-.63-1,2.73,2.73,0,0,0-1-.68,3.43,3.43,0,0,0-1.31-.24h-12A9.25,9.25,0,0,1,97,42.4a8,8,0,0,1-4.8-4.07,8.73,8.73,0,0,1-.83-4,8.58,8.58,0,0,1,.83-3.95,8,8,0,0,1,2.09-2.62A7.89,7.89,0,0,1,97,26.32a9.25,9.25,0,0,1,2.72-.45h17.72v5.21H99.74a3,3,0,0,0-2.31.9,3.34,3.34,0,0,0-.83,2.38,3.26,3.26,0,0,0,.83,2.37,3,3,0,0,0,2.31.87h12a8.91,8.91,0,0,1,1.78.24,8.24,8.24,0,0,1,1.88.65,8.72,8.72,0,0,1,1.77,1.11,7.43,7.43,0,0,1,1.49,1.61,8,8,0,0,1,1,2.16A9.4,9.4,0,0,1,120.08,46.13Z"/><path class="cls-2" d="M150.56,52a2.57,2.57,0,0,1-.2,1,2.39,2.39,0,0,1-.56.83,2.66,2.66,0,0,1-.84.55,2.69,2.69,0,0,1-1,.2H136.21a16.14,16.14,0,0,1-3.36-.36,14.91,14.91,0,0,1-3.3-1.11,14.16,14.16,0,0,1-3-1.91,12.7,12.7,0,0,1-2.45-2.75,13.54,13.54,0,0,1-1.65-3.65,16.26,16.26,0,0,1-.6-4.57V25.87h5.2V40.23a9.92,9.92,0,0,0,.61,3.72,8.33,8.33,0,0,0,1.55,2.54,7.5,7.5,0,0,0,2.06,1.6,10.76,10.76,0,0,0,3.92,1.22c.51,0,.85.07,1,.07h9.15V25.87h5.2Z"/><path class="cls-2" d="M183.33,52.36a2.58,2.58,0,0,1-.21,1,2.7,2.7,0,0,1-.56.83,2.61,2.61,0,0,1-.83.55,2.69,2.69,0,0,1-1,.2,2.77,2.77,0,0,1-1-.18,2.29,2.29,0,0,1-.88-.58l-19-19.86V54.58h-5.21V28.1a2.52,2.52,0,0,1,.45-1.46,2.91,2.91,0,0,1,1.15-1,2.67,2.67,0,0,1,1.53-.15,2.58,2.58,0,0,1,1.34.73l19,19.84V25.87h5.21Z"/></svg>